<svg width="1117" height="196" viewBox="0 0 1117 196" fill="none" xmlns="http://www.w3.org/2000/svg">
<path d="M832.755 0V63.1807C834.609 61.1357 835.608 60.0776 836.547 58.9837C852.23 40.8285 879.671 41.5775 893.153 61.5043C898.159 68.8996 901.333 78.1495 903.045 86.9953C906.018 102.404 905.185 118.003 899.05 132.829C890.989 152.34 875.01 162.196 855.903 159.723C847.188 158.594 840.328 154.385 835.133 147.406C833.741 145.539 832.457 143.601 830.912 141.378C830.424 142.519 830.091 143.197 829.842 143.922C826.425 153.909 819.082 158.186 807.811 156.751V0H832.755ZM880.051 104.461C878.41 95.7103 877.733 88.3864 875.592 81.5262C871.823 69.4465 863.465 64.2508 852.503 66.0104C842.052 67.6868 832.767 78.6489 832.755 89.3495C832.743 99.194 832.707 109.027 832.755 118.871C832.802 127.764 841.41 138.358 850.185 140.439C859.708 142.709 868.982 138.917 873.119 129.155C876.591 120.999 878.018 111.987 880.051 104.461Z" fill="white"/>
<path d="M25.1256 0C25.2088 21.4605 25.2921 42.921 25.3991 64.3815C25.3991 64.5242 25.6012 64.6669 26.1005 65.3446C27.5273 63.7633 28.8946 62.2415 30.2619 60.7315C38.9293 51.2199 49.392 45.6556 62.625 46.1669C78.5213 46.797 90.9695 57.7472 91.3738 73.5721C92.0753 100.93 91.5997 128.311 91.5997 155.681C91.5997 156.026 91.3025 156.359 90.9933 157.012H66.608C66.501 154.706 66.3108 152.602 66.3108 150.509C66.287 130.428 66.3108 110.334 66.287 90.2531C66.287 87.6968 66.2632 85.1287 65.9898 82.5844C64.5155 69.173 54.2548 63.3828 42.2346 69.8626C31.7956 75.4982 24.3171 82.9648 24.9829 96.7447C25.946 116.576 25.2326 136.479 25.2326 156.846H0.193359V0H25.1375H25.1256Z" fill="white"/>
<path d="M1116.6 127.658C1116.26 128.11 1115.72 128.514 1115.58 129.025C1109.9 148.904 1093.92 160.972 1069.52 160.128C1046.25 159.331 1030.62 147.121 1024.69 125.054C1020.35 108.908 1020.49 92.6552 1026.3 76.8541C1036.48 49.1992 1069.57 37.1432 1095.47 51.47C1106.72 57.7001 1112.85 67.5684 1115.8 80.6111C1107.85 82.454 1100.26 84.2255 1092.18 86.1041C1091.22 83.0841 1090.39 80.1237 1089.35 77.2465C1086.76 70.0414 1082.14 64.9289 1074.11 64.2156C1065.86 63.4903 1058.41 65.9514 1054.3 73.3824C1051.43 78.5899 1049.5 84.6298 1048.57 90.527C1046.64 102.868 1046.9 115.269 1051.27 127.218C1054.1 134.958 1059.34 140.261 1067.76 141.711C1078.69 143.59 1086.64 139.012 1090.7 128.585C1091.83 125.684 1092.61 122.652 1093.62 119.454C1101.39 121.428 1109.01 123.366 1116.62 125.304V127.67L1116.6 127.658Z" fill="white"/>
<path d="M243.132 195.641H218.794V48.8537H242.228V61.2782C248.922 56.7127 255.033 50.7798 262.369 47.9026C278.051 41.7438 295.778 48.7348 305.219 63.2162C318.499 83.571 318.119 122.093 304.374 142.127C295.624 154.872 283.687 161.126 267.969 159.711C257.47 158.772 250.265 152.815 243.132 144.766C243.132 153.053 243.132 161.34 243.132 169.627C243.132 177.914 243.132 186.486 243.132 195.641ZM243.132 102.987C243.132 107.719 243.132 112.439 243.132 117.171C243.167 127.764 251.621 138.536 261.418 140.462C271.559 142.471 280.845 137.311 285.078 126.123C290.999 110.465 290.809 94.4499 285.03 78.7676C282.284 71.301 276.803 66.3431 268.397 65.4276C256.4 64.1317 243.334 75.5813 243.144 87.6253C243.06 92.7497 243.132 97.8621 243.132 102.987Z" fill="white"/>
<path d="M427.11 108.48H353.265C351.517 124.637 359.697 138.631 372.3 141.865C387.067 145.658 396.019 140.284 403.736 122.39C410.869 124.423 418.122 126.48 425.874 128.68C420.975 143.851 411.927 154.551 396.875 157.75C387.245 159.795 376.675 160.282 366.973 158.725C345.501 155.277 333.921 140.772 329.581 120.274C327.025 108.194 327.298 96.0076 330.282 83.9517C336.405 59.1859 355.155 45.2158 381.062 46.0956C403.415 46.8565 421.237 63.3947 425.196 87.4353C426.278 93.9864 426.421 100.692 427.098 108.48H427.11ZM401.453 91.6917C402.392 74.666 392.892 63.1927 378.292 63.1094C363.549 63.0262 352.956 75.0465 353.407 91.6917H401.441H401.453Z" fill="white"/>
<path d="M712.922 157.047H688.239V48.7342H712.078V64.9871C712.506 65.1655 712.946 65.3438 713.374 65.5222C714.705 64.0122 716.013 62.4785 717.38 61.0042C726.048 51.6115 736.356 45.7619 749.601 46.0353C765.747 46.3682 778.623 57.2828 779.039 73.286C779.764 100.989 779.241 128.727 779.241 156.893H754.345C754.25 154.991 754.048 152.934 754.048 150.865C754.024 130.795 754.036 110.714 754.036 90.6446C754.036 88.8731 754.119 87.0897 753.988 85.3301C753.524 78.9573 753.049 72.4181 746.414 69.0652C739.305 65.4746 732.432 67.2462 726.297 71.5383C717.963 77.3879 712.173 84.2124 712.684 95.7928C713.564 115.993 712.934 136.265 712.934 157.036L712.922 157.047Z" fill="white"/>
<path d="M668.715 105.305C667.384 111.927 666.563 120.452 663.912 128.371C656.659 149.938 637.565 161.851 614.642 160.044C591.279 158.201 575.014 143.601 570.496 120.084C568.13 107.766 568.178 95.413 571.364 83.1906C577.666 58.9955 595.69 45.501 620.908 46.0835C643.878 46.6067 661.415 61.6231 666.29 85.3069C667.515 91.2517 667.788 97.3867 668.727 105.317L668.715 105.305ZM593.728 103.034C593.942 103.094 594.168 103.141 594.382 103.201C594.799 108.087 595.024 113.009 595.678 117.872C596.094 120.964 596.939 124.043 597.985 126.991C601.575 137.109 608.281 142.055 618.161 142.127C628.386 142.198 635.639 137.347 638.956 127.015C644.009 111.262 643.997 95.2466 639.099 79.4573C635.865 69.054 628.517 63.8821 618.589 63.8821C608.709 63.8821 601.04 69.0897 598.032 79.3979C595.809 87.0428 595.108 95.1396 593.728 103.034Z" fill="white"/>
<path d="M107.412 194.25V176.309C110.8 176.594 114.439 177.046 118.089 177.177C130.965 177.653 141.285 168.926 142.51 156.323C142.712 154.313 141.761 152.126 141.059 150.105C130.014 118.134 118.909 86.1749 107.828 54.2041C107.257 52.5514 106.698 50.8988 105.866 48.4258C114.213 48.4258 122.024 48.2236 129.812 48.6279C131.096 48.6992 132.867 51.2436 133.343 52.9557C140.06 76.806 146.576 100.704 153.163 124.602C153.65 126.373 154.233 128.121 154.78 129.869C155.303 129.869 155.826 129.869 156.349 129.869C163.804 102.903 171.258 75.938 178.773 48.7468H203.61C198.283 64.2863 193.135 79.3146 187.987 94.3429C180.473 116.303 172.982 138.263 165.468 160.223C164.957 161.709 164.493 163.219 163.934 164.681C154.256 190.327 135.257 200.409 107.4 194.238L107.412 194.25Z" fill="white"/>
<path d="M1010.99 80.8247C1003.23 82.5962 995.748 84.2964 987.758 86.1155C987.069 83.5711 986.522 81.1457 985.737 78.8035C983.062 70.7781 978.377 64.8928 969.199 64.0843C960.222 63.2877 952.078 67.8532 948.119 76.4374C943.018 87.4947 942.65 99.3247 943.72 111.167C944.195 116.41 945.241 121.725 946.918 126.694C950.485 137.276 958.094 142.27 968.925 141.937C978.151 141.663 984.179 136.408 987.473 125.743C988.044 123.877 988.507 121.986 989.244 119.299C996.818 121.344 1004.3 123.377 1011.7 125.375C1009.56 142.84 995.082 156.894 976.986 159.45C943.731 164.146 920.606 145.539 918.157 112.177C917.194 99.075 917.824 86.1988 923.175 73.9645C934.731 47.5104 968.878 37.1903 993.37 52.6942C1002.94 58.7459 1009.9 69.5773 1011 80.8009L1010.99 80.8247Z" fill="white"/>
<path d="M470.637 157.048H446.358V48.7351H469.341V72.2763C474.085 65.7727 477.889 59.4356 482.812 54.1091C488.019 48.4735 495.034 45.8935 503.404 46.2621C502.976 53.1461 502.774 59.6021 502.037 65.9867C501.882 67.3183 499.956 69.2087 498.565 69.506C482.479 72.9777 470.637 87.2808 470.637 103.617C470.637 121.285 470.637 138.941 470.637 157.06V157.048Z" fill="white"/>
<path d="M548.691 157.024H524.448V48.7109H548.691V157.024Z" fill="white"/>
<path d="M523.402 28.2618V3.75757H549.785V28.2618H523.402Z" fill="white"/>
</svg>
