<svg width="3976" height="582" xmlns="http://www.w3.org/2000/svg" fill="none">

 <g>
  <title>Layer 1</title>
  <rect id="svg_1" fill="#DAAD86" height="194" width="194" y="388"/>
  <rect id="svg_2" fill="#C3B78D" height="194" width="194"/>
  <rect id="svg_3" fill="#484A4F" height="194" width="194" y="388" x="194"/>
  <rect id="svg_4" fill="#AD8406" height="194" width="194" x="194"/>
  <rect id="svg_5" fill="#222629" height="194" width="194" y="388" x="388"/>
  <rect id="svg_6" fill="#7D6632" height="194" width="194" x="388"/>
  <rect id="svg_7" fill="#D6A483" height="194" width="194" y="194"/>
  <g stroke="null">
   <path stroke="null" fill="#484A4F" d="m3128.03183,0.27176l0,185.98844c5.46066,-6.01998 8.40147,-9.13476 11.16566,-12.35494c46.16395,-53.44444 126.9435,-51.23957 166.63414,7.42003c14.73349,21.76994 24.07991,48.99937 29.11961,75.03923c8.74884,45.35942 6.29963,91.27904 -11.7603,134.92314c-23.7296,57.43558 -70.77079,86.44922 -127.01415,79.16932c-25.65482,-3.3235 -45.84897,-15.71376 -61.14471,-36.25822c-4.09476,-5.49599 -7.87454,-11.20098 -12.42559,-17.74495c-1.43361,3.35882 -2.41388,5.35469 -3.14982,7.48891c-10.05586,29.39927 -31.67479,41.98971 -64.85384,37.76542l0,-461.43638l73.429,0zm139.23073,307.50748c-4.8307,-25.75991 -6.82657,-47.31967 -13.1262,-67.51441c-11.09501,-35.55966 -35.6989,-50.85453 -67.96834,-45.6747c-30.76517,4.93491 -58.10087,37.20463 -58.1362,68.70457c-0.03533,28.97979 -0.13836,57.92572 0,86.90403c0.1413,26.1788 25.48113,57.36493 51.30963,63.49089c28.03631,6.68232 55.33669,-4.48039 67.515,-33.21732c10.22071,-24.00926 14.42145,-50.53837 20.4061,-72.69306z"/>
   <path stroke="null" fill="#DAAD86" d="m750.57135,0.27176c0.24521,63.17443 0.49014,126.34886 0.80512,189.5233c0,0.42007 0.59493,0.84015 2.06504,2.83513c4.19985,-4.65496 8.22485,-9.13476 12.24984,-13.57983c25.51469,-27.99981 56.3146,-44.37974 95.2693,-42.8746c46.7945,1.85486 83.43923,34.08955 84.6291,80.67417c2.06504,80.53493 0.66499,161.13785 0.66499,241.7084c0,1.0156 -0.87488,1.99587 -1.7848,3.91814l-71.78462,0c-0.31498,-6.7883 -0.87488,-12.98195 -0.87488,-19.14323c-0.07006,-59.11352 0,-118.26532 -0.07006,-177.37854c0,-7.52512 -0.06977,-15.08497 -0.87488,-22.57477c-4.33998,-39.47986 -34.54466,-56.52479 -69.92946,-37.44985c-30.72985,16.58982 -52.74442,38.56965 -50.78447,79.13429c2.83484,58.37847 0.73476,116.968 0.73476,176.92344l-73.70924,0l0,-461.71603l73.42929,0l-0.03503,0z"/>
   <path stroke="null" fill="#484A4F" d="m3963.61344,376.0655c-1.00088,1.33058 -2.5905,2.51985 -3.00263,4.02411c-16.72052,58.51888 -63.76171,94.04411 -135.58931,91.55958c-68.50115,-2.34617 -114.51203,-38.28941 -131.99793,-103.24923c-12.77589,-47.52985 -12.33433,-95.3741 4.76888,-141.88865c29.96742,-81.40922 127.37623,-116.89912 203.59002,-74.72454c33.14667,18.33988 51.16244,47.38973 59.84652,85.78423c-23.37341,5.42504 -45.74594,10.6399 -69.50203,16.17004c-2.826,-8.89014 -5.29876,-17.60483 -8.33082,-26.0746c-7.62432,-21.21004 -21.2539,-36.25998 -44.86281,-38.35976c-24.28597,-2.1351 -46.24637,5.10977 -58.31577,26.9848c-8.47801,15.3296 -14.13002,33.10958 -16.86771,50.46948c-5.71088,36.32887 -4.94551,72.83436 7.94814,108.00928c8.33082,22.78466 23.75609,38.39538 48.5425,42.66383c32.17523,5.53131 55.57807,-7.94519 67.50028,-38.63971c3.32644,-8.53983 5.65201,-17.46529 8.6252,-26.87942c22.84353,5.81097 45.27494,11.51597 67.6769,17.22096l0,6.96492l-0.02944,-0.03533z"/>
   <path stroke="null" fill="#DAAD86" d="m1392.32679,576.19073l-71.64214,0l0,-432.1057l68.98393,0l0,36.57467c19.70549,-13.43971 37.69477,-30.90471 59.29015,-39.37448c46.16395,-18.12999 98.34788,2.44979 126.13691,45.07947c39.096,59.91952 37.97443,173.31881 -2.48453,232.29398c-25.76079,37.51814 -60.90038,55.92838 -107.17031,51.76297c-30.90353,-2.76418 -52.11328,-20.30013 -73.11402,-43.9944c0,24.39489 0,48.78978 0,73.18467c0,24.39489 0,49.62875 0,76.57882zm0,-272.75058c0,13.92984 0,27.82436 0,41.75421c0.10598,31.18319 24.98953,62.8933 53.82948,68.56297c29.85555,5.914 57.19125,-9.27577 69.64922,-42.21049c17.42997,-46.0933 16.87065,-93.23781 -0.13836,-139.40265c-8.08649,-21.97983 -24.22121,-36.57467 -48.9664,-39.26968c-35.31327,-3.81481 -73.77931,29.88999 -74.33862,65.34457c-0.24433,15.08497 -0.03533,30.13462 -0.03533,45.22107z"/>
   <path stroke="null" fill="#DAAD86" d="m1933.9157,319.61019l-217.38445,0c-5.14274,47.56223 18.93717,88.75713 56.03436,98.27723c43.47041,11.16566 69.82584,-4.65408 92.53985,-57.32961c21.00074,5.98465 42.35179,12.03995 65.16883,18.51621c-14.41851,44.65969 -41.05359,76.15786 -85.36298,85.57493c-28.34835,6.01998 -59.46383,7.45359 -88.02413,2.87016c-63.20828,-10.15006 -97.2999,-52.84921 -110.07285,-113.19028c-7.52718,-35.56055 -6.72059,-71.43431 2.06357,-106.92391c18.02461,-72.90442 73.21999,-114.02896 149.48383,-111.43904c65.79879,2.2399 118.26532,50.92429 129.91964,121.69391c3.18514,19.28483 3.60315,39.02446 5.59902,61.95042l0.03533,0zm-75.53084,-49.42062c2.76713,-50.11947 -25.19853,-83.89404 -68.17734,-84.13926c-43.39976,-0.24492 -74.58589,35.13989 -73.25532,84.13926l141.40028,0l0.03238,0z"/>
   <path stroke="null" fill="#DAAD86" d="m2775.27296,462.57949l-72.65774,0l0,-318.84623l70.17321,0l0,47.84454c1.25993,0.52517 2.55518,1.05004 3.81511,1.5752c3.92108,-4.44507 7.77151,-8.9599 11.79562,-13.29988c25.51352,-27.6498 55.86068,-44.86958 94.84775,-44.06476c47.52985,0.97998 85.43657,33.10987 86.66117,80.21936c2.13422,81.55082 0.59464,163.20466 0.59464,246.11844l-73.29064,0c-0.27966,-5.59902 -0.87429,-11.65432 -0.87429,-17.74495c-0.07065,-59.08114 -0.03533,-118.19467 -0.03533,-177.27404c0,-5.21486 0.24433,-10.46475 -0.13836,-15.64458c-1.3659,-18.75996 -2.76713,-38.00975 -22.29599,-47.87986c-20.93009,-10.56984 -41.15957,-5.35469 -59.2195,7.2802c-24.53325,17.21978 -41.58052,37.30943 -40.07332,71.39928c2.58756,59.46442 0.73299,119.1402 0.73299,180.28491l-0.03533,0.03238z"/>
   <path stroke="null" fill="#DAAD86" d="m2645.14137,310.26377c-3.92108,19.49354 -6.33496,44.58904 -14.13885,67.90063c-21.35105,63.48794 -77.55909,98.55688 -145.03876,93.23752c-68.77492,-5.42534 -116.65508,-48.40415 -129.95496,-117.63241c-6.96492,-36.26116 -6.82362,-72.62535 2.55518,-108.60509c18.54859,-71.22442 71.60976,-110.94891 145.8424,-109.23417c67.62097,1.54017 119.24559,45.74476 133.59639,115.46404c3.60315,17.50003 4.40974,35.55996 7.17393,58.90481l-0.03533,-0.03533zm-220.74328,-6.68527c0.62996,0.17663 1.29525,0.31498 1.92522,0.49161c1.2246,14.38318 1.88989,28.87234 3.81511,43.18781c1.2246,9.10209 3.70913,18.16591 6.7883,26.84409c10.57102,29.7849 30.31183,44.34471 59.39612,44.55666c30.09988,0.20901 51.45093,-14.07114 61.21536,-44.48601c14.87479,-46.37296 14.83946,-93.51835 0.41801,-139.99817c-9.5201,-30.62476 -31.14786,-45.84956 -60.37345,-45.84956c-29.08429,0 -51.65994,15.32989 -60.51475,45.6747c-6.54397,22.5047 -8.61048,46.33969 -12.66992,69.57886z"/>
   <path stroke="null" fill="#DAAD86" d="m992.8005,572.09597l0,-52.81389c9.97638,0.83897 20.68576,2.16955 31.43046,2.55518c37.90672,1.40123 68.28626,-24.28891 71.88942,-61.38905c0.59464,-5.91695 -2.20487,-12.35494 -4.26844,-18.30426c-32.51671,-94.11476 -65.20415,-188.19448 -97.82389,-282.30865c-1.68088,-4.86514 -3.32644,-9.72999 -5.77565,-17.00989c24.56857,0 47.56518,-0.59523 70.48819,0.59493c3.77978,0.20989 8.99611,7.69998 10.3944,12.73998c19.77614,70.20942 38.9547,140.55925 58.3452,210.90908c1.43655,5.21339 3.14982,10.35907 4.76005,15.50475c1.53958,0 3.07917,0 4.62169,0c21.94274,-79.38127 43.88843,-158.75959 66.00779,-238.8038l73.11402,0c-15.67843,45.74446 -30.83288,89.98408 -45.98732,134.2237c-22.12231,64.64513 -44.17103,129.28997 -66.2904,193.93481c-1.50426,4.37442 -2.87016,8.81949 -4.51572,13.12326c-28.48965,75.49551 -84.41803,105.17444 -166.42219,87.00854l0.03238,0.03533z"/>
   <path stroke="null" fill="#484A4F" d="m3652.72359,238.19979c-22.87297,5.21486 -44.87753,10.21983 -68.39812,15.57481c-2.03119,-7.49009 -3.64142,-14.62987 -5.94933,-21.52473c-7.87749,-23.6248 -21.66603,-40.94968 -48.68675,-43.3297c-26.42314,-2.34499 -50.40001,11.09471 -62.05433,36.36449c-15.01315,32.54997 -16.09939,67.37458 -12.94957,102.2354c1.40123,15.4341 4.48039,31.08015 9.41413,45.70767c10.50037,31.1508 32.90234,45.85191 64.78614,44.87164c27.15907,-0.80659 44.90402,-16.27602 54.5978,-47.67115c1.68088,-5.49304 3.04679,-11.05968 5.21633,-18.96955c22.29599,6.01998 44.30055,12.00463 66.11377,17.88625c-6.29963,51.41266 -48.92813,92.78418 -102.19831,100.30842c-97.89454,13.82387 -165.96885,-40.95056 -173.1781,-139.16008c-2.83484,-38.56906 -0.98027,-76.47343 14.76881,-112.4882c34.02096,-77.87436 134.53839,-108.2542 206.63975,-62.61453c28.18056,17.81472 48.63965,49.69969 51.90721,82.73921l-0.02944,0.07006z"/>
   <path stroke="null" fill="#DAAD86" d="m2062.04553,462.58243l-71.46846,0l0,-318.84653l67.65335,0l0,69.2995c13.96517,-19.145 25.16615,-37.79986 39.65531,-53.47977c15.33107,-16.58982 35.9815,-24.18471 60.62073,-23.09964c-1.25993,20.2648 -1.85456,39.26968 -4.02706,58.06437c-0.45334,3.9199 -6.12301,9.48478 -10.21777,10.35995c-47.35617,10.21983 -82.2161,52.32464 -82.2161,100.41439c0,52.01024 0,103.98516 0,157.32304l0,-0.03533z"/>
   <path stroke="null" fill="#DAAD86" d="m2291.82025,462.51178l-71.36543,0l0,-318.84712l71.36543,0l0,318.84712z"/>
   <path stroke="null" fill="#DAAD86" d="m2217.37565,83.46754l0,-72.13442l77.66506,0l0,72.13442l-77.66506,0z"/>
  </g>
 </g>
</svg>