<svg width="3976" height="582" xmlns="http://www.w3.org/2000/svg" fill="none">

 <g>
  <title>Layer 1</title>
  <rect id="svg_1" fill="#DAAD86" height="194" width="194" y="388"/>
  <rect id="svg_2" fill="#C3B78D" height="194" width="194"/>
  <rect id="svg_3" fill="#484A4F" height="194" width="194" y="388" x="194"/>
  <rect id="svg_4" fill="#AD8406" height="194" width="194" x="194"/>
  <rect id="svg_5" fill="#222629" height="194" width="194" y="388" x="388"/>
  <rect id="svg_6" fill="#7D6632" height="194" width="194" x="388"/>
  <rect id="svg_7" fill="#D6A483" height="194" width="194" y="194"/>
  <g stroke="null">
   <path stroke="null" fill="white" d="m3139.88408,3.31094l0,184.6672c5.41895,-5.97721 8.33887,-9.06987 11.08342,-12.26717c45.83893,-53.06478 126.04464,-50.87557 165.45039,7.36732c14.63175,21.61529 23.90885,48.65129 28.91275,74.50616c8.68961,45.03719 6.25488,90.63061 -11.67675,133.96466c-23.56103,57.02757 -70.26512,85.8351 -126.11186,78.60691c-25.47257,-3.29989 -45.52326,-15.60213 -60.70743,-36.00064c-4.0686,-5.45695 -7.82153,-11.12141 -12.33732,-17.61889c-1.42635,3.33496 -2.39965,5.31665 -3.12744,7.43571c-9.98735,29.19042 -31.44978,41.69142 -64.39313,37.49714l0,-458.1584l72.90737,0zm138.23873,305.32299c-4.79638,-25.57691 -6.77515,-46.98351 -13.03295,-67.0348c-11.01619,-35.30705 -35.4453,-50.49326 -67.4855,-45.35023c-30.54662,4.89985 -57.68521,36.94034 -57.72028,68.2165c-0.03507,28.77392 -0.1403,57.51422 0,86.28668c0.13737,25.99283 25.2972,56.95742 50.94513,63.03985c27.83422,6.63485 54.94066,-4.44857 67.03246,-32.98135c10.14811,-23.8387 14.319,-50.17935 20.26114,-72.17666z"/>
   <path stroke="null" fill="white" d="m779.311,3.31094c0.24318,62.72565 0.48665,125.4513 0.7994,188.17695c0,0.41709 0.59071,0.83418 2.05008,2.81499c4.17031,-4.62189 8.16671,-9.06987 12.16311,-13.48336c25.33344,-27.8009 55.91426,-44.06447 94.59223,-42.57002c46.46237,1.84168 82.84649,33.84739 84.0282,80.10107c2.05037,79.96282 0.66027,159.99315 0.66027,239.99134c0,1.00838 -0.86867,1.98169 -1.77241,3.8903l-71.27438,0c-0.31274,-6.74007 -0.86867,-12.88973 -0.86867,-19.00724c-0.06956,-58.69359 0,-117.42517 -0.06956,-176.11847c0,-7.47166 -0.06956,-14.97781 -0.86867,-22.4144c-4.30915,-39.1994 -34.29955,-56.12324 -69.43269,-37.18381c-30.51155,16.47197 -52.37002,38.29566 -50.42399,78.57213c2.81499,57.96376 0.72983,116.13708 0.72983,175.6666l-73.18574,0l0,-458.43607l72.90778,0l-0.03478,0z"/>
   <path stroke="null" fill="white" d="m3969.51814,376.4351c-0.99377,1.32112 -2.5721,2.50195 -2.9813,3.99552c-16.60174,58.10317 -63.30876,93.37603 -134.6261,90.90915c-68.01453,-2.32951 -113.69855,-38.0174 -131.031,-102.51576c-12.68513,-47.19221 -12.27594,-94.69657 4.70578,-140.88069c29.75453,-80.8309 126.47137,-116.06868 202.17298,-74.19371c32.88197,18.2096 50.79899,47.05308 59.42138,85.17483c-23.23659,5.38651 -45.42096,10.56432 -69.03753,16.05517c-2.80593,-8.82698 -5.23189,-17.47976 -8.27164,-25.88936c-7.57016,-21.05937 -21.07369,-36.0024 -44.54411,-38.08726c-24.11345,-2.11994 -45.88862,5.07347 -57.9015,26.79311c-8.38856,15.2207 -14.02964,32.87437 -16.74788,50.11096c-5.64108,36.07079 -4.88115,72.31696 7.89167,107.24199c8.27164,22.6228 23.58733,38.12263 48.19766,42.36075c31.94666,5.49202 55.18326,-7.88875 67.04999,-38.36522c3.30281,-8.47916 5.58263,-17.34122 8.5347,-26.68847c22.71048,5.76969 44.98254,11.43416 67.22536,17.09863l0,6.91544l-0.05846,-0.03507z"/>
   <path stroke="null" fill="white" d="m1416.50925,575.13866l-71.13613,0l0,-429.03608l68.49388,0l0,36.31485c19.5655,-13.34423 37.42699,-30.68516 58.86896,-39.09476c45.83601,-18.0012 97.64923,2.43239 125.24378,44.75923c38.81534,59.49386 37.70466,172.08758 -2.4698,230.64379c-25.57487,37.25162 -60.46483,55.53107 -106.40606,51.39525c-30.68692,-2.74455 -51.74599,-20.15592 -72.59463,-43.68187c0,24.22159 0,48.44318 0,72.66477c0,24.22159 0,49.27619 0,76.03481zm0,-270.813c0,13.83089 0,27.6267 0,41.45759c0.1023,30.96166 24.81201,62.44652 53.44709,68.07591c29.64054,5.87199 56.78205,-9.20987 69.15444,-41.91063c17.30615,-45.76586 16.75081,-92.57546 -0.1403,-138.41235c-8.02612,-21.82369 -24.04622,-36.31485 -48.61563,-38.99071c-35.06533,-3.78771 -73.25519,29.67766 -73.81053,64.88037c-0.24552,14.97781 -0.03507,29.92055 -0.03507,44.89982z"/>
   <path stroke="null" fill="white" d="m1954.24786,320.38083l-215.83726,0c-5.10913,47.22436 18.79972,88.12661 55.6363,97.57908c43.16161,11.08634 69.32689,-4.62101 91.88246,-56.92235c20.84863,5.94214 42.048,11.95442 64.70587,18.38468c-14.319,44.34243 -40.76488,75.61684 -84.75949,84.96701c-28.14697,5.97721 -59.04141,7.40064 -87.39882,2.84977c-62.75926,-10.07796 -96.60577,-52.47378 -109.29091,-112.3862c-7.47078,-35.30793 -6.67285,-70.92685 2.04891,-106.16434c17.89656,-72.38652 72.69985,-113.21891 148.42191,-110.6474c65.33429,2.22399 117.42517,50.56253 128.99671,120.82941c3.16251,19.14783 3.58048,38.74724 5.55925,61.51033l0.03507,0zm-74.99136,-49.06955c2.74455,-49.76343 -25.02245,-83.29807 -67.69594,-83.54154c-43.09146,-0.24318 -74.05312,34.89026 -72.73492,83.54154l140.39579,0l0.03507,0z"/>
   <path stroke="null" fill="white" d="m2789.63116,462.3345l-72.14451,0l0,-316.58119l69.67763,0l0,47.50466c1.25098,0.52144 2.53703,1.04258 3.788,1.56401c3.8903,-4.41349 7.71338,-8.89625 11.7089,-13.2054c25.33519,-27.45338 55.46385,-44.55083 94.17689,-43.75173c47.19221,0.97301 84.82672,32.87466 86.04262,79.64949c2.11906,80.97149 0.59041,162.04528 0.59041,244.37005l-72.76707,0c-0.27767,-5.55925 -0.86808,-11.57153 -0.86808,-17.61889c-0.07015,-58.66144 -0.03507,-117.35503 -0.03507,-176.01471c0,-5.17781 0.2426,-10.39041 -0.1403,-15.53344c-1.3562,-18.62669 -2.74455,-37.73973 -22.1376,-47.53973c-20.77848,-10.49476 -40.86718,-5.31665 -58.79881,7.22848c-24.35896,17.09746 -41.28222,37.04439 -39.78865,70.89207c2.5721,59.04199 0.73071,118.29384 0.73071,179.00419l-0.03507,0.03215z"/>
   <path stroke="null" fill="white" d="m2660.42109,311.10081c-3.8903,19.35506 -6.28996,44.27229 -14.03841,67.41827c-21.19937,63.03693 -77.00812,97.85675 -144.00842,92.57517c-68.28636,-5.3868 -115.82638,-48.06029 -129.03178,-116.79676c-6.91544,-36.00357 -6.77515,-72.10943 2.53703,-107.83358c18.41975,-70.71845 71.10105,-110.16074 144.80928,-108.45819c67.13768,1.52923 118.39556,45.41979 132.64441,114.6438c3.58048,17.37571 4.37842,35.30735 7.12297,58.48636l-0.03507,-0.03507zm-219.17515,-6.63777c0.62549,0.17537 1.28605,0.31274 1.91154,0.48811c1.21883,14.28101 1.87646,28.66723 3.788,42.88101c1.2159,9.03743 3.6857,18.03686 6.743,26.6534c10.493,29.57331 30.09358,44.02969 58.97126,44.24014c29.88606,0.20752 51.08543,-13.97118 60.7805,-44.16999c14.76912,-46.04353 14.73405,-92.85401 0.41797,-139.00364c-9.45247,-30.4072 -30.92951,-45.52385 -59.94749,-45.52385c-28.87768,0 -51.29295,15.22099 -60.08486,45.35023c-6.49748,22.34483 -8.54639,46.0105 -12.57991,69.08458z"/>
   <path stroke="null" fill="white" d="m1019.82114,571.07298l0,-52.43871c9.90259,0.83301 20.53881,2.15413 31.20718,2.53703c37.63451,1.39127 67.79824,-24.11637 71.37872,-60.95295c0.59041,-5.87491 -2.18921,-12.26717 -4.24104,-18.17423c-32.28279,-93.44618 -64.74095,-186.85758 -97.12896,-280.30317c-1.66894,-4.83058 -3.30281,-9.66087 -5.73462,-16.88906c24.39696,0 47.22728,-0.591 69.99037,0.59071c3.75293,0.2084 8.92928,7.64528 10.32055,12.64948c19.63273,69.71066 38.67797,139.56073 57.93073,209.41081c1.42342,5.17635 3.12744,10.28548 4.72624,15.39461c1.52865,0 3.05729,0 4.58594,0c21.78979,-78.81736 43.57665,-157.63179 65.54181,-237.10737l72.59463,0c-15.56998,45.4195 -30.61677,89.34485 -45.66356,133.27019c-21.96223,64.1859 -43.85724,128.37151 -65.81948,192.55712c-1.49357,4.34334 -2.84977,8.75683 -4.48364,13.03003c-28.28726,74.9592 -83.81834,104.4273 -165.23995,86.39044l0.03507,0.03507z"/>
   <path stroke="null" fill="white" d="m3660.83681,239.54876c-22.68125,5.17781 -44.54996,10.14723 -67.90346,15.46417c-2.01384,-7.43688 -3.61263,-14.52594 -5.90706,-21.37182c-7.8186,-23.45698 -21.51212,-40.65878 -48.33796,-43.02189c-26.23835,-2.32834 -50.04198,11.0159 -61.61351,36.10616c-14.90942,32.31874 -15.98502,66.89596 -12.85758,101.50913c1.38835,15.32446 4.44564,30.85937 9.34725,45.38297c10.42578,30.92951 32.66568,45.52619 64.32298,44.55288c26.96614,-0.80086 44.58503,-16.16039 54.21287,-47.3325c1.66894,-5.45402 3.02222,-10.98112 5.17635,-18.83479c22.1376,5.97721 44.00631,11.91935 65.63534,17.75919c-6.25488,51.04743 -48.57179,92.12505 -101.46353,99.59584c-97.19911,13.72567 -164.78983,-40.65965 -171.94787,-138.17151c-2.8147,-38.29507 -0.97331,-75.93017 14.66682,-111.6891c33.77636,-77.32115 133.58264,-107.48517 205.16889,-62.16972c27.9716,17.68816 48.31458,49.34663 51.5297,82.15144l-0.02923,0.06956z"/>
   <path stroke="null" fill="white" d="m2081.4704,462.33742l-70.96368,0l0,-316.58149l67.17568,0l0,68.80721c13.86596,-19.00899 24.98445,-37.53134 39.3736,-53.09985c15.21924,-16.47197 35.72297,-24.0129 60.18716,-22.93554c-1.25098,20.12084 -1.84139,38.99071 -3.99552,57.65189c-0.45304,3.89206 -6.08243,9.4174 -10.14811,10.28636c-47.01684,10.14723 -81.62913,51.95293 -81.62913,99.70106c0,51.64077 0,103.24647 0,156.20544l0,-0.03507z"/>
   <path stroke="null" fill="white" d="m2309.60991,462.26727l-70.85846,0l0,-316.58207l70.85846,0l0,316.58207z"/>
   <path stroke="null" fill="white" d="m2235.69416,85.91571l0,-71.62199l77.11334,0l0,71.62199l-77.11334,0z"/>
  </g>
 </g>
</svg>