<svg width="216" height="140" viewBox="0 0 216 140" fill="none" xmlns="http://www.w3.org/2000/svg">
<path d="M0 0H216V140H60C26.8629 140 0 113.137 0 80V0Z" fill="#AD8406"/>
<path d="M18 32L32.7761 36.7805V87.1929L18 91.5388V32Z" fill="white" fill-opacity="0.25"/>
<path d="M41.0333 32L55.8093 36.7805V87.1929L41.0333 91.5388V32Z" fill="white" fill-opacity="0.25"/>
<path d="M64.5011 32L77.5388 36.7456V86.79L64.5011 91.1042V32Z" fill="white" fill-opacity="0.25"/>
<path d="M89.7073 32L101.007 36.7456V86.79L89.7073 91.1042V32Z" fill="white" fill-opacity="0.25"/>
<path d="M114.044 32L123.605 36.7456V86.79L114.044 91.1042V32Z" fill="white" fill-opacity="0.25"/>
<path d="M136.643 32L147.073 36.7456V86.79L136.643 91.1042V32Z" fill="white" fill-opacity="0.25"/>
<path d="M161.849 32L168.803 36.7456V86.79L161.849 91.1042V32Z" fill="white" fill-opacity="0.25"/>
<path d="M186.186 32L191.401 36.7456V86.79L186.186 91.1042V32Z" fill="white" fill-opacity="0.25"/>
<path d="M210.523 32L214 36.7456V86.79L210.523 91.1042V32Z" fill="white" fill-opacity="0.25"/>
</svg>
